<?xml version="1.0" encoding="UTF-8"?>
<svg version="1.1" xmlns="http://www.w3.org/2000/svg" width="577" height="433">
<path d="M0 0 C57.09 0 114.18 0 173 0 C176 9 176 9 176.95703125 11.96875 C180.01323397 21.0117608 183.57750196 28.05770286 192 33 C199.48920377 35.88120922 207.4267546 37.38832012 215.3125 38.75 C216.04049805 38.87769775 216.76849609 39.00539551 217.51855469 39.13696289 C224.03162692 40.18586531 230.58374593 40.81440663 237 39 C237.14099121 38.09644775 237.28198242 37.19289551 237.42724609 36.26196289 C237.95316724 32.91928391 238.48702095 29.57807708 239.02636719 26.23754883 C239.25842016 24.7898178 239.48727265 23.34157008 239.71289062 21.89282227 C240.03722147 19.81383312 240.37291188 17.73695685 240.7109375 15.66015625 C240.90993652 14.40855713 241.10893555 13.15695801 241.31396484 11.86743164 C241.54035645 10.9211792 241.76674805 9.97492676 242 9 C242.66 8.67 243.32 8.34 244 8 C245.65 13.61 247.3 19.22 249 25 C250.98 24.505 250.98 24.505 253 24 C257.76951415 23.84858685 261.26243813 24.05248763 266 25 C267.65 19.39 269.3 13.78 271 8 C271.66 8.33 272.32 8.66 273 9 C273.68603516 11.86743164 273.68603516 11.86743164 274.2890625 15.66015625 C274.39721283 16.32462265 274.50536316 16.98908905 274.61679077 17.6736908 C274.96123188 19.80204679 275.29323174 21.93213545 275.625 24.0625 C275.85595581 25.50338608 276.08771631 26.94414343 276.3203125 28.38476562 C276.88956269 31.92172933 277.44766943 35.46035007 278 39 C286.71958188 41.47061012 295.41104373 39.59486465 304.0625 37.6875 C305.08666016 37.47416016 306.11082031 37.26082031 307.16601562 37.04101562 C320.27040144 34.42352974 320.27040144 34.42352974 331 27 C333.08324296 23.85755482 333.08324296 23.85755482 334.6875 20.375 C334.98293701 19.76688477 335.27837402 19.15876953 335.58276367 18.53222656 C337.78681495 13.84348585 339.28173828 9.15801962 340.39453125 4.109375 C341 2 341 2 343 0 C345.9322834 -0.24609566 345.9322834 -0.24609566 349.77029419 -0.24050903 C350.47437405 -0.24221788 351.1784539 -0.24392673 351.90386951 -0.24568737 C354.27471937 -0.24899452 356.64528928 -0.23795865 359.01611328 -0.22705078 C360.71096795 -0.22648693 362.40582311 -0.22680271 364.10067749 -0.22793579 C368.71202472 -0.22851133 373.32326862 -0.2167246 377.93459177 -0.20278788 C382.74991747 -0.19031391 387.56524535 -0.18911266 392.38058472 -0.18673706 C401.50369422 -0.18051246 410.62675598 -0.16408843 419.74984443 -0.14403808 C430.13420892 -0.12170952 440.51857565 -0.11069332 450.90295815 -0.10064721 C472.26866545 -0.07972302 493.63432972 -0.04452806 515 0 C515 0.66 515 1.32 515 2 C513.77667969 2.46148437 512.55335938 2.92296875 511.29296875 3.3984375 C482.7509829 14.36381705 452.21612153 29.75479265 438.5625 58.8125 C435.51019698 65.96403124 434.67602524 72.81895451 434.75 80.5 C434.74226563 81.30308594 434.73453125 82.10617188 434.7265625 82.93359375 C434.73937403 86.88595103 434.99934577 90.45314519 436.015625 94.28125 C436.86296974 97.48233012 437.08813405 99.75163082 437 103 C436.33806641 102.93941406 435.67613281 102.87882812 434.99414062 102.81640625 C385.36976757 98.37651052 326.1857307 98.25096434 285.5625 131.78125 C271.49959573 143.89540007 264.0171804 158.62076946 258 176 C255.30074732 173.30074732 254.53718144 170.15474897 253.3125 166.625 C244.41190859 142.22411463 226.90533334 127.24336186 204 116 C165.40300444 98.09151127 119.31640848 99.38385252 78 103 C78.88007204 95.45652541 78.88007204 95.45652541 79.52026367 93.01953125 C82.15521834 81.9272437 80.83975024 68.18173871 76 58 C75.61070313 57.10667969 75.22140625 56.21335938 74.8203125 55.29296875 C62.07513658 28.93534162 30.38083506 12.96122056 4.1875 3.375 C2.79569022 2.90458987 1.40175352 2.43989455 0 2 C0 1.34 0 0.68 0 0 Z " fill="#221E1F" transform="translate(31,128)"/>
<path d="M0 0 C56.76 0 113.52 0 172 0 C172 0.66 172 1.32 172 2 C169.068542 3.20282097 166.12902758 4.38454273 163.1875 5.5625 C161.93743164 6.07586914 161.93743164 6.07586914 160.66210938 6.59960938 C159.85966797 6.91865234 159.05722656 7.23769531 158.23046875 7.56640625 C157.49207764 7.86490479 156.75368652 8.16340332 155.99291992 8.47094727 C154 9 154 9 151 8 C151.969375 7.71125 152.93875 7.4225 153.9375 7.125 C157.10664203 6.35785318 157.10664203 6.35785318 158 4 C159.32 3.67 160.64 3.34 162 3 C108.21 3 54.42 3 -1 3 C-0.67 2.01 -0.34 1.02 0 0 Z " fill="#20171B" transform="translate(374,128)"/>
<path d="M0 0 C0.33 0.66 0.66 1.32 1 2 C0.40832031 2.81082031 -0.18335938 3.62164062 -0.79296875 4.45703125 C-8.14473918 14.69194043 -12.87428759 25.08383622 -17 37 C-19.18614424 34.81385576 -19.68256535 33.46120051 -20.625 30.5625 C-20.88539063 29.78003906 -21.14578125 28.99757813 -21.4140625 28.19140625 C-22 26 -22 26 -22 23 C-21.01 23.33 -20.02 23.66 -19 24 C-18.01 23.01 -17.02 22.02 -16 21 C-15.01 21.33 -14.02 21.66 -13 22 C-11.98459888 17.89776415 -11.98459888 17.89776415 -13 14 C-12.195625 13.566875 -11.39125 13.13375 -10.5625 12.6875 C-7.72153646 11.19525998 -7.72153646 11.19525998 -7 8 C-6.34 8 -5.68 8 -5 8 C-4.731875 7.4225 -4.46375 6.845 -4.1875 6.25 C-2.98280141 3.9674132 -1.59201885 2.0262058 0 0 Z " fill="#1F191D" transform="translate(306,267)"/>
<path d="M0 0 C3.76572058 3.76572058 4.125 9.36475086 4.125 14.5 C4.08375 15.655 4.0425 16.81 4 18 C3.34 17.34 2.68 16.68 2 16 C1.34 16.33 0.68 16.66 0 17 C-2.20419806 14.79580194 -2.56148712 14.01076528 -3 11 C-2.6953125 8.45703125 -2.6953125 8.45703125 -2.125 5.8125 C-1.94195312 4.93207031 -1.75890625 4.05164063 -1.5703125 3.14453125 C-1 1 -1 1 0 0 Z " fill="#211D20" transform="translate(274,136)"/>
<path d="M0 0 C24.255 0.495 24.255 0.495 49 1 C49 1.33 49 1.66 49 2 C30.19 2.495 30.19 2.495 11 3 C11.33 3.66 11.66 4.32 12 5 C7.6822542 4.49202991 3.96697886 3.80317221 0 2 C0 1.34 0 0.68 0 0 Z " fill="#11060B" transform="translate(31,128)"/>
<path d="M0 0 C13.86 0.33 27.72 0.66 42 1 C42 1.33 42 1.66 42 2 C40.66376587 2.03758423 40.66376587 2.03758423 39.30053711 2.07592773 C35.91765183 2.17245652 32.53486123 2.27157684 29.15209961 2.37231445 C27.7025844 2.41498015 26.2530405 2.4566846 24.8034668 2.49731445 C22.69050307 2.55672093 20.57766522 2.61933411 18.46484375 2.68359375 C17.76467133 2.70424896 17.0644989 2.72490417 16.34310913 2.7461853 C12.79797616 2.86274279 9.27036905 3.03942138 5.73486328 3.32861328 C4.71399376 3.41043602 4.71399376 3.41043602 3.67250061 3.49391174 C1.80619561 3.65052364 -0.05876588 3.82291623 -1.92358398 3.99633789 C-5 4 -5 4 -9 2 C-6.03 2 -3.06 2 0 2 C0 1.34 0 0.68 0 0 Z " fill="#0F0B0C" transform="translate(126,226)"/>
<path d="M0 0 C1 3 1 3 -0.3984375 6.21484375 C-1.04741062 7.46092534 -1.70670879 8.70167141 -2.375 9.9375 C-5.28714296 15.23691087 -5.28714296 15.23691087 -7 21 C-7.66 21 -8.32 21 -9 21 C-9.32987303 16.27181994 -8.61137796 13.91706695 -6 10 C-5.8509288 7.9254644 -5.8509288 7.9254644 -7 6 C-6.34 5.34 -5.68 4.68 -5 4 C-4.67 3.34 -4.34 2.68 -4 2 C-3.01 2 -2.02 2 -1 2 C-0.67 1.34 -0.34 0.68 0 0 Z " fill="#1B1618" transform="translate(474,174)"/>
<path d="M0 0 C0.33 0.66 0.66 1.32 1 2 C0.40832031 2.83402344 -0.18335938 3.66804688 -0.79296875 4.52734375 C-5.23699881 10.83957676 -9.4622037 17.11996399 -13 24 C-13.33 23.34 -13.66 22.68 -14 22 C-13.33333333 20 -12.66666667 18 -12 16 C-12.33 15.34 -12.66 14.68 -13 14 C-12.195625 13.566875 -11.39125 13.13375 -10.5625 12.6875 C-7.72153646 11.19525998 -7.72153646 11.19525998 -7 8 C-6.34 8 -5.68 8 -5 8 C-4.731875 7.4225 -4.46375 6.845 -4.1875 6.25 C-2.98280141 3.9674132 -1.59201885 2.0262058 0 0 Z " fill="#181215" transform="translate(306,267)"/>
<path d="M0 0 C-3.10898554 1.55449277 -6.45488663 1.38268836 -9.875 1.5625 C-10.63353271 1.6049585 -11.39206543 1.64741699 -12.17358398 1.69116211 C-18.45151028 2.02025497 -24.71382575 2.1090088 -31 2 C-31 1.67 -31 1.34 -31 1 C-25.49319789 -0.1773635 -19.97591335 -0.67107915 -14.375 -1.1875 C-13.32570313 -1.29513672 -12.27640625 -1.40277344 -11.1953125 -1.51367188 C-10.18984375 -1.60583984 -9.184375 -1.69800781 -8.1484375 -1.79296875 C-6.77437744 -1.92481567 -6.77437744 -1.92481567 -5.37255859 -2.05932617 C-3 -2 -3 -2 0 0 Z " fill="#1A1617" transform="translate(420,228)"/>
<path d="M0 0 C0.66 0.33 1.32 0.66 2 1 C2.33 3.64 2.66 6.28 3 9 C-2.94 8.34 -8.88 7.68 -15 7 C-15 6.67 -15 6.34 -15 6 C-12.70839681 5.97307516 -10.41670454 5.95363876 -8.125 5.9375 C-6.84882813 5.92589844 -5.57265625 5.91429687 -4.2578125 5.90234375 C-1 6 -1 6 1 7 C0.649375 6.21625 0.29875 5.4325 -0.0625 4.625 C-0.371875 3.75875 -0.68125 2.8925 -1 2 C-0.67 1.34 -0.34 0.68 0 0 Z " fill="#191416" transform="translate(465,222)"/>
<path d="M0 0 C0.99 0 1.98 0 3 0 C2.67 1.32 2.34 2.64 2 4 C1.34 2.68 0.68 1.36 0 0 Z M-3 2 C0.875 3.75 0.875 3.75 2 6 C2.99 6.66 3.98 7.32 5 8 C6.06902939 10.30252483 7.07175817 12.6372026 8 15 C8.33 15.66 8.66 16.32 9 17 C4.94096184 15.64698728 3.58364348 12.91214858 1.3125 9.5 C0.89677734 8.89285156 0.48105469 8.28570312 0.05273438 7.66015625 C-3 3.15875154 -3 3.15875154 -3 2 Z " fill="#191517" transform="translate(273,266)"/>
<path d="M0 0 C0 0.66 0 1.32 0 2 C-2.931458 3.20282097 -5.87097242 4.38454273 -8.8125 5.5625 C-9.64587891 5.90474609 -10.47925781 6.24699219 -11.33789062 6.59960938 C-12.54155273 7.07817383 -12.54155273 7.07817383 -13.76953125 7.56640625 C-14.50792236 7.86490479 -15.24631348 8.16340332 -16.00708008 8.47094727 C-18 9 -18 9 -21 8 C-20.030625 7.71125 -19.06125 7.4225 -18.0625 7.125 C-14.89335797 6.35785318 -14.89335797 6.35785318 -14 4 C-10.9375 3.375 -10.9375 3.375 -8 3 C-8 2.34 -8 1.68 -8 1 C-5.23735711 0.40267181 -2.83967231 0 0 0 Z " fill="#130D11" transform="translate(546,128)"/>
<path d="M0 0 C7.06608191 -0.13794954 13.97360585 0.25194283 21 1 C20.01 1.33 19.02 1.66 18 2 C18 2.66 18 3.32 18 4 C12.06 3.01 6.12 2.02 0 1 C0 0.67 0 0.34 0 0 Z " fill="#1C171A" transform="translate(245,168)"/>
<path d="M0 0 C1.04005702 3.38018531 1.08004482 6.4780279 1 10 C0.34 10 -0.32 10 -1 10 C-1.28875 10.78375 -1.5775 11.5675 -1.875 12.375 C-3 15 -3 15 -5 17 C-3.18181818 3.18181818 -3.18181818 3.18181818 0 0 Z " fill="#191516" transform="translate(372,133)"/>
<path d="M0 0 C1.32 0.99 2.64 1.98 4 3 C3.34 4.32 2.68 5.64 2 7 C-0.64 5.35 -3.28 3.7 -6 2 C-5.01 1.67 -4.02 1.34 -3 1 C-2.01 1.66 -1.02 2.32 0 3 C0 2.01 0 1.02 0 0 Z " fill="#1C171B" transform="translate(75,145)"/>
<path d="M0 0 C3.63 0.33 7.26 0.66 11 1 C11.33 2.32 11.66 3.64 12 5 C7.6822542 4.49202991 3.96697886 3.80317221 0 2 C0 1.34 0 0.68 0 0 Z " fill="#150D13" transform="translate(31,128)"/>
<path d="M0 0 C4.455 0.99 4.455 0.99 9 2 C9 2.33 9 2.66 9 3 C6.75135275 3.22245975 4.50097377 3.42746557 2.25 3.625 C0.37054688 3.79902344 0.37054688 3.79902344 -1.546875 3.9765625 C-5 4 -5 4 -9 2 C-6.03 2 -3.06 2 0 2 C0 1.34 0 0.68 0 0 Z " fill="#181315" transform="translate(126,226)"/>
<path d="M0 0 C4.29 0 8.58 0 13 0 C10 2 10 2 8 2 C7.67 2.66 7.34 3.32 7 4 C4.69 3.01 2.38 2.02 0 1 C0 0.67 0 0.34 0 0 Z " fill="#1B1718" transform="translate(312,169)"/>
<path d="M0 0 C1.125 1.625 1.125 1.625 2 4 C1.1875 6.875 1.1875 6.875 0 10 C-0.36920191 11.99369031 -0.71325582 13.99279077 -1 16 C-1.33 16 -1.66 16 -2 16 C-2.05449838 14.27119018 -2.09301688 12.54187288 -2.125 10.8125 C-2.14820313 9.84957031 -2.17140625 8.88664063 -2.1953125 7.89453125 C-1.9913544 4.87187222 -1.26874632 2.73230015 0 0 Z " fill="#171216" transform="translate(272,148)"/>
<path d="M0 0 C0.66 0.33 1.32 0.66 2 1 C-1.96 4.465 -1.96 4.465 -6 8 C-6.66 7.67 -7.32 7.34 -8 7 C-3.76744186 1.25581395 -3.76744186 1.25581395 0 0 Z " fill="#191416" transform="translate(320,254)"/>
<path d="M0 0 C0.66 0 1.32 0 2 0 C3.35386936 1.65002828 4.68678142 3.3174387 6 5 C6.66 5.33 7.32 5.66 8 6 C8 6.99 8 7.98 8 9 C6 9 6 9 4.5625 7.625 C4.046875 7.08875 3.53125 6.5525 3 6 C2.01 5.34 1.02 4.68 0 4 C0 2.68 0 1.36 0 0 Z " fill="#1D1819" transform="translate(212,153)"/>
<path d="M0 0 C0.66 0.33 1.32 0.66 2 1 C2.59355614 3.64860427 2.74209269 6.29197322 3 9 C2.01 9 1.02 9 0 9 C-1.125 2.25 -1.125 2.25 0 0 Z " fill="#241D24" transform="translate(302,136)"/>
<path d="M0 0 C0.66 0 1.32 0 2 0 C4.27678571 8.03571429 4.27678571 8.03571429 3 12 C-0.42857143 4.71428571 -0.42857143 4.71428571 0 0 Z " fill="#1A1415" transform="translate(204,133)"/>
<path d="M0 0 C0.66 0.33 1.32 0.66 2 1 C2 3.31 2 5.62 2 8 C1.01 8.33 0.02 8.66 -1 9 C-1 5.72724974 -0.70074844 3.153368 0 0 Z " fill="#1B1517" transform="translate(306,159)"/>
<path d="M0 0 C3.40675564 1.63437104 6.16650816 3.47283161 9 6 C9.33 6.99 9.66 7.98 10 9 C6.78956118 7.61811547 4.95063635 6.07578097 2.75 3.375 C2.22921875 2.74335938 1.7084375 2.11171875 1.171875 1.4609375 C0.78515625 0.97882813 0.3984375 0.49671875 0 0 Z " fill="#181316" transform="translate(260,258)"/>
<path d="M0 0 C3.3 0 6.6 0 10 0 C10.33 0.66 10.66 1.32 11 2 C6.70700357 3.26264601 4.12168689 2.62950412 0 1 C0 0.67 0 0.34 0 0 Z " fill="#191617" transform="translate(287,153)"/>
<path d="M0 0 C2 2 2 2 2 6 C1.01 6.495 1.01 6.495 0 7 C-0.66 7.99 -1.32 8.98 -2 10 C-1.85950482 8.52031676 -1.71245174 7.04125484 -1.5625 5.5625 C-1.48128906 4.73878906 -1.40007812 3.91507813 -1.31640625 3.06640625 C-1 1 -1 1 0 0 Z " fill="#2D262C" transform="translate(274,136)"/>
</svg>
