<svg id="faviconSVG" xmlns="http://www.w3.org/2000/svg" version="1.1" xmlns:xlink="http://www.w3.org/1999/xlink" xmlns:svgjs="http://svgjs.dev/svgjs" width="300" height="300"><svg width="300" height="300" viewBox="0 0 300 300" fill="none" xmlns="http://www.w3.org/2000/svg">
    <g clip-path="url(#clip0_223_38)">
        <rect x="0.351562" y="0.145752" width="300" height="300" rx="71" fill="rgb(var(--background-normal, 17 21 27))"></rect>
        <path d="M220.678 88.015C205.551 88.8758 175.484 92.009 156.922 103.401C155.641 104.188 154.915 105.585 154.915 107.047V207.76C154.915 210.957 158.402 212.978 161.342 211.494C180.439 201.856 208.057 199.227 221.713 198.507C226.375 198.261 230 194.513 230 190.021V96.5123C230.003 91.6105 225.763 87.7272 220.678 88.015ZM144.078 103.401C125.519 92.009 95.4522 88.8786 80.3248 88.015C75.2401 87.7272 71 91.6105 71 96.5123V190.024C71 194.519 74.6245 198.267 79.2869 198.51C92.9485 199.23 120.581 201.862 139.678 211.505C142.609 212.986 146.085 210.968 146.085 207.78V106.997C146.085 105.533 145.361 104.19 144.078 103.401Z" fill="rgb(var(--accent, 179 179 209))"></path>
    </g>
    <defs>
        <clipPath id="SvgjsClipPath1005">
            <rect width="300" height="300" fill="white"></rect>
        </clipPath>
    </defs>
</svg><style>@media (prefers-color-scheme: light) { :root { --background-normal: 245 245 245; --accent: 36 36 51; } }
@media (prefers-color-scheme: dark) { :root { --background-normal: 17 21 27; --accent: 179 179 209; } }
</style></svg>