<svg width="1024" height="1024" viewBox="0 0 1024 1024" fill="none" xmlns="http://www.w3.org/2000/svg">
<g clip-path="url(#clip0_98_150)">
<rect width="1024" height="1024" rx="153" fill="#04070B"/>
<g filter="url(#filter0_d_98_150)">
<path d="M738.973 312.059C690.047 314.836 592.803 324.943 532.771 361.69C528.628 364.226 526.28 368.735 526.28 373.449V698.313C526.28 708.625 537.556 715.143 547.065 710.357C608.829 679.27 698.154 670.788 742.321 668.467C757.401 667.672 769.123 655.584 769.123 641.093V339.469C769.132 323.657 755.418 311.131 738.973 312.059ZM491.229 361.69C431.206 324.943 333.962 314.845 285.036 312.059C268.59 311.131 254.877 323.657 254.877 339.469V641.102C254.877 655.601 266.599 667.69 281.679 668.476C325.864 670.797 415.233 679.288 476.998 710.393C486.479 715.169 497.72 708.661 497.72 698.376V373.288C497.72 368.565 495.38 364.235 491.229 361.69Z" fill="#D4D4D4"/>
<path d="M738.973 312.059C690.047 314.836 592.803 324.943 532.771 361.69C528.628 364.226 526.28 368.735 526.28 373.449V698.313C526.28 708.625 537.556 715.143 547.065 710.357C608.829 679.27 698.154 670.788 742.321 668.467C757.401 667.672 769.123 655.584 769.123 641.093V339.469C769.132 323.657 755.418 311.131 738.973 312.059ZM491.229 361.69C431.206 324.943 333.962 314.845 285.036 312.059C268.59 311.131 254.877 323.657 254.877 339.469V641.102C254.877 655.601 266.599 667.69 281.679 668.476C325.864 670.797 415.233 679.288 476.998 710.393C486.479 715.169 497.72 708.661 497.72 698.376V373.288C497.72 368.565 495.38 364.235 491.229 361.69Z" stroke="black"/>
</g>
</g>
<defs>
<filter id="filter0_d_98_150" x="54.877" y="112.011" width="914.246" height="799.978" filterUnits="userSpaceOnUse" color-interpolation-filters="sRGB">
<feFlood flood-opacity="0" result="BackgroundImageFix"/>
<feColorMatrix in="SourceAlpha" type="matrix" values="0 0 0 0 0 0 0 0 0 0 0 0 0 0 0 0 0 0 127 0" result="hardAlpha"/>
<feOffset/>
<feGaussianBlur stdDeviation="100"/>
<feComposite in2="hardAlpha" operator="out"/>
<feColorMatrix type="matrix" values="0 0 0 0 0.831373 0 0 0 0 0.831373 0 0 0 0 0.831373 0 0 0 0.1 0"/>
<feBlend mode="normal" in2="BackgroundImageFix" result="effect1_dropShadow_98_150"/>
<feBlend mode="normal" in="SourceGraphic" in2="effect1_dropShadow_98_150" result="shape"/>
</filter>
<clipPath id="clip0_98_150">
<rect width="1024" height="1024" rx="500" fill="white"/>
</clipPath>
</defs>
</svg>
